<?xml version="1.0" encoding="UTF-8" standalone="no"?>
<svg
   width="24px"
   height="24px"
   stroke-width="1.49"
   viewBox="0 0 24 24"
   fill="none"
   color="#9a9996"
   version="1.1"
   id="svg6"
   sodipodi:docname="volume-down-symbolic.svg"
   inkscape:version="1.2.1 (9c6d41e410, 2022-07-14)"
   xmlns:inkscape="http://www.inkscape.org/namespaces/inkscape"
   xmlns:sodipodi="http://sodipodi.sourceforge.net/DTD/sodipodi-0.dtd"
   xmlns="http://www.w3.org/2000/svg"
   xmlns:svg="http://www.w3.org/2000/svg">
  <defs
     id="defs10" />
  <sodipodi:namedview
     id="namedview8"
     pagecolor="#ffffff"
     bordercolor="#666666"
     borderopacity="1.0"
     inkscape:showpageshadow="2"
     inkscape:pageopacity="0.0"
     inkscape:pagecheckerboard="0"
     inkscape:deskcolor="#d1d1d1"
     showgrid="false"
     inkscape:zoom="33.666667"
     inkscape:cx="9.891089"
     inkscape:cy="12.014851"
     inkscape:window-width="1680"
     inkscape:window-height="973"
     inkscape:window-x="0"
     inkscape:window-y="0"
     inkscape:window-maximized="1"
     inkscape:current-layer="svg6" />
  <path
     style="color:#9a9996;fill:#0c0c0c;stroke-linecap:round;stroke-linejoin:round;-inkscape-stroke:none;stroke:none;fill-opacity:1"
     d="m 17.972656,6.9726562 a 0.745,0.745 0 0 0 0,1.0546876 c 0,0 1.283203,1.2706584 1.283203,3.4726562 0,2.201998 -1.283203,3.472656 -1.283203,3.472656 a 0.745,0.745 0 0 0 0,1.054688 0.745,0.745 0 0 0 1.054688,0 c 0,0 1.716797,-1.729347 1.716797,-4.527344 0,-2.7979972 -1.716797,-4.5273437 -1.716797,-4.5273438 a 0.745,0.745 0 0 0 -1.054688,0 z"
     id="path2" />
  <path
     style="color:#9a9996;fill:#0c0c0c;-inkscape-stroke:none;stroke:none;fill-opacity:1"
     d="m 12.931641,5.1367187 c -0.307412,0.00457 -0.618814,0.091431 -0.900391,0.2792969 l -4.1933594,2.796875 c -0.041965,0.027982 -0.090186,0.04298 -0.140625,0.042969 H 5 C 4.0450883,8.2558594 3.2558594,9.0450883 3.2558594,10 v 4 c 0,0.954912 0.7892289,1.744141 1.7441406,1.744141 h 2.6972656 0.00195 c 0.049772,-8.6e-5 0.097034,0.01576 0.1386719,0.04297 l 4.1933594,2.794922 c 1.125148,0.750685 2.713093,-0.09859 2.712891,-1.451172 V 6.8710937 6.8691406 c 9.95e-4,-1.0144369 -0.890878,-1.7461152 -1.8125,-1.7324219 z M 12.857422,6.65625 h 0.002 c 0.204373,-0.1363556 0.397013,-0.032794 0.396484,0.2128906 V 17.130859 c 3.7e-5,0.245267 -0.192459,0.347061 -0.396484,0.210938 h -0.002 L 8.6640625,14.546875 C 8.3776698,14.356654 8.0410473,14.255643 7.6972656,14.255859 H 5 C 4.8503433,14.255859 4.7441406,14.149657 4.7441406,14 V 10 C 4.7441406,9.8503433 4.8503433,9.7441406 5,9.7441406 h 2.6972656 c 0.3446257,7.73e-5 0.6820215,-0.1017788 0.96875,-0.2929687 z"
     id="path298" />
</svg>
